<?xml version="1.0" standalone="no"?>
<!DOCTYPE svg PUBLIC "-//W3C//DTD SVG 20010904//EN"
 "http://www.w3.org/TR/2001/REC-SVG-20010904/DTD/svg10.dtd">
<svg version="1.0" xmlns="http://www.w3.org/2000/svg"
 width="819.000000pt" height="304.000000pt" viewBox="0 0 819.000000 304.000000"
 preserveAspectRatio="xMidYMid meet">

<g transform="translate(0.000000,304.000000) scale(0.100000,-0.100000)"
fill="#000000" stroke="none">
<path d="M7628 2651 c-120 -14 -222 -31 -228 -37 -7 -7 -10 -75 -8 -195 l3
-184 43 1 c23 0 42 -3 42 -8 0 -13 -120 -322 -128 -330 -4 -3 -37 67 -73 158
l-67 164 34 0 c19 0 34 5 34 10 0 6 7 10 15 10 22 0 23 358 1 366 -20 8 -469
-46 -483 -58 -15 -12 -19 -314 -5 -335 4 -7 36 -13 72 -15 l65 -3 117 -270
c65 -148 118 -274 118 -280 0 -5 -53 -134 -119 -285 l-118 -275 -64 2 c-40 1
-66 -3 -71 -10 -14 -21 -9 -311 5 -329 13 -16 470 -103 488 -93 13 8 12 325
-1 325 -5 0 -10 11 -10 25 0 22 -4 25 -35 25 -19 0 -35 4 -35 9 0 5 29 83 64
173 62 158 65 162 76 133 24 -62 120 -335 120 -341 0 -3 -19 -4 -42 -2 l-43 3
-3 -187 c-2 -178 -1 -187 17 -193 11 -3 120 -28 242 -55 162 -35 227 -46 236
-38 18 15 19 383 1 395 -7 4 -38 13 -68 18 l-54 10 -68 185 c-37 102 -93 254
-124 338 l-57 153 124 314 124 315 56 0 c30 0 60 5 67 12 8 8 12 67 12 198 0
190 -4 212 -39 209 -9 -1 -114 -13 -233 -28z"/>
<path d="M365 2658 c-3 -8 -4 -97 -3 -198 l3 -185 48 -8 47 -9 0 -654 0 -654
-24 0 c-14 0 -36 -4 -50 -10 l-26 -10 0 -189 c0 -142 3 -190 13 -193 10 -4
389 73 425 87 9 3 12 50 12 185 l0 182 -47 -3 -48 -3 -3 136 -3 137 33 5 c18
2 71 8 118 14 110 11 184 45 254 115 125 125 186 362 165 650 -18 253 -104
429 -246 504 -80 43 -107 49 -368 77 -126 14 -245 28 -263 31 -22 4 -34 2 -37
-7z m567 -441 c77 -32 114 -143 105 -309 -6 -116 -20 -163 -61 -204 -40 -40
-89 -54 -188 -54 l-78 0 0 296 0 297 93 -5 c50 -3 109 -12 129 -21z"/>
<path d="M797 2143 c-2 -4 -1 -17 3 -28 6 -18 7 -18 17 -1 7 13 19 17 44 14
49 -4 79 -65 80 -163 0 -38 4 -79 9 -90 12 -28 12 128 0 179 -15 67 -40 91
-98 94 -27 2 -52 -1 -55 -5z"/>
<path d="M6525 2529 c-93 -10 -176 -21 -182 -24 -10 -3 -13 -47 -13 -170 l0
-165 45 0 45 0 0 -516 0 -516 -42 4 -43 3 -3 -162 c-2 -162 -2 -163 20 -167
96 -21 411 -67 416 -61 10 10 10 307 0 328 -5 9 -19 17 -33 17 -59 0 -55 -37
-55 551 l0 539 40 0 c27 0 42 5 49 18 9 18 13 305 4 329 -6 16 -35 15 -248 -8z"/>
<path d="M1560 2528 c-1 -2 -67 -329 -148 -728 l-147 -725 -47 -8 c-31 -6 -49
-15 -53 -26 -8 -25 -1 -319 8 -327 10 -10 420 67 429 80 9 13 11 278 2 300 -4
11 -19 16 -46 16 l-39 0 7 36 c4 20 12 59 18 88 l11 51 90 7 c50 3 122 9 161
12 l71 7 12 -58 c7 -32 15 -68 18 -79 4 -19 -1 -23 -36 -29 l-41 -7 0 -153 c0
-85 4 -156 8 -159 13 -8 412 50 423 61 6 6 8 68 7 149 l-3 139 -50 1 -50 0
-21 90 c-35 145 -149 660 -209 939 -31 143 -59 269 -64 281 -8 19 -23 22 -138
32 -126 12 -173 14 -173 10z m209 -700 c27 -130 46 -240 43 -243 -3 -3 -50 -5
-105 -5 -81 0 -98 3 -94 14 3 8 27 121 53 252 26 131 49 234 51 228 2 -5 25
-116 52 -246z"/>
<path d="M269 2385 c-7 -155 -3 -172 52 -203 21 -12 29 -25 29 -44 0 -36 -14
-35 -52 2 -16 17 -31 30 -34 30 -2 0 -4 -12 -4 -27 0 -34 31 -87 63 -108 14
-9 29 -26 33 -38 5 -12 11 -209 14 -437 l5 -415 3 523 c2 511 2 522 -17 522
-11 0 -33 11 -48 24 -28 24 -28 26 -33 168 l-5 143 -6 -140z"/>
<path d="M5651 2455 c-84 -8 -157 -17 -162 -22 -5 -5 -8 -74 -7 -154 l3 -144
48 -3 47 -3 0 -454 0 -454 -47 -3 -48 -3 -3 -136 c-2 -101 1 -139 10 -147 15
-12 765 -105 779 -97 13 9 12 582 -2 590 -5 4 -55 9 -109 12 -116 7 -105 20
-115 -146 -3 -58 -7 -107 -9 -109 -3 -2 -48 -1 -100 3 l-96 7 -1 454 c-1 250
-2 462 -3 472 -1 11 7 18 24 20 76 8 70 -5 70 172 l0 160 -62 -1 c-35 -1 -132
-7 -217 -14z"/>
<path d="M2627 2445 c-196 -54 -334 -258 -377 -560 -14 -104 -12 -347 5 -450
19 -120 40 -186 83 -269 113 -215 308 -297 552 -229 76 20 177 75 233 126 l48
42 -26 130 c-15 72 -31 134 -36 139 -5 5 -32 -11 -66 -39 -80 -66 -151 -96
-243 -102 -67 -5 -81 -3 -125 20 -104 52 -154 149 -175 335 -18 158 10 316 72
420 58 95 138 131 251 112 34 -5 65 -10 68 -10 3 0 9 -77 13 -172 5 -117 11
-175 19 -180 7 -5 59 -7 117 -6 l105 3 3 282 2 283 -41 26 c-154 97 -346 136
-482 99z"/>
<path d="M5110 2424 c-146 -7 -326 -17 -400 -21 l-135 -8 -3 -147 -3 -148 46
0 45 0 0 -420 0 -420 -45 0 -45 0 0 -135 c0 -100 3 -137 13 -140 6 -2 104 -8
215 -12 186 -7 205 -7 213 9 10 19 12 210 3 246 -5 18 -13 22 -50 22 l-44 0 0
150 0 150 139 0 c106 0 141 3 150 14 8 9 11 50 9 117 l-3 104 -147 3 -148 3 0
159 0 160 115 2 c63 1 134 2 158 3 l42 0 6 -97 c4 -53 10 -101 13 -107 8 -13
154 -15 174 -3 10 7 13 67 12 261 0 139 -2 257 -6 262 -3 5 -17 8 -32 8 -15
-1 -146 -8 -292 -15z"/>
<path d="M3225 2389 c-3 -13 -4 -80 -3 -149 l3 -125 48 -9 47 -8 0 -424 0
-424 -45 0 c-55 0 -57 -4 -53 -160 l3 -115 190 3 c105 1 205 5 223 8 l32 5 0
134 c0 101 -3 135 -12 136 -7 0 -29 1 -48 2 l-35 2 0 415 0 415 48 3 47 3 0
144 c0 79 -3 146 -7 148 -5 3 -103 8 -220 12 l-212 7 -6 -23z"/>
<path d="M3733 2389 c-16 -16 -19 -284 -4 -274 5 3 12 1 16 -5 3 -5 22 -10 41
-10 l34 0 0 -415 0 -415 -33 0 c-64 0 -68 -10 -65 -150 l3 -125 395 0 395 0 3
246 2 246 -94 7 c-51 3 -101 4 -109 0 -16 -6 -21 -28 -32 -156 l-7 -68 -99 0
-99 0 0 415 0 415 45 0 45 0 0 145 0 145 -102 0 c-57 0 -152 3 -213 6 -84 5
-113 3 -122 -7z"/>
<path d="M6229 2250 c-6 -110 5 -143 58 -169 25 -12 33 -23 33 -43 0 -37 -21
-36 -60 3 -17 17 -34 29 -37 25 -3 -3 -1 -25 6 -48 14 -44 56 -92 91 -101 19
-5 20 -1 20 79 l0 84 -34 14 c-49 20 -60 48 -66 156 l-5 95 -6 -95z"/>
<path d="M7967 2247 c-18 -41 -63 -67 -117 -67 -20 0 -33 -6 -37 -17 -3 -10
-51 -132 -105 -272 -98 -250 -100 -254 -88 -297 10 -35 15 -40 26 -31 7 7 52
110 99 229 l86 217 45 7 c73 11 124 68 124 140 l0 27 -32 -37 c-27 -30 -42
-39 -83 -44 -56 -8 -38 24 -165 -297 -40 -99 -76 -184 -81 -189 -23 -24 -3 36
74 231 46 114 92 232 102 261 17 46 22 52 47 52 69 0 134 53 126 102 -4 20 -6
19 -21 -15z"/>
<path d="M7340 2160 c-10 -6 -11 -14 -4 -30 l10 -22 12 26 c12 27 4 40 -18 26z"/>
<path d="M6002 2126 c-8 -23 -24 -39 -47 -50 l-35 -17 0 -394 c0 -380 1 -395
19 -395 21 0 37 55 22 74 -23 27 -32 140 -29 339 3 196 4 209 23 220 36 20 73
66 78 99 7 49 -2 54 -34 19 -35 -39 -59 -41 -59 -3 0 21 7 30 30 39 33 13 71
76 54 93 -7 7 -14 -2 -22 -24z"/>
<path d="M6773 2113 c-10 -4 -13 -106 -13 -468 0 -394 2 -464 14 -468 13 -5
15 48 15 380 0 417 -2 403 54 403 26 0 32 -8 68 -86 87 -189 122 -280 123
-321 l1 -41 28 60 c15 33 27 65 27 71 0 14 -189 450 -200 461 -10 10 -96 16
-117 9z m125 -70 c11 -27 55 -128 97 -227 45 -105 73 -182 68 -187 -6 -6 -21
18 -37 58 -15 38 -55 130 -89 206 l-61 137 -48 0 c-47 0 -48 1 -48 30 0 29 1
30 49 30 48 0 48 0 69 -47z"/>
<path d="M4250 2097 c0 -29 -29 -65 -61 -76 l-29 -10 0 -330 c0 -318 1 -331
19 -331 11 0 21 9 25 23 10 38 7 95 -6 99 -10 4 -14 51 -16 182 l-3 178 39 36
c44 40 73 115 53 135 -8 8 -11 7 -11 -1 0 -17 -49 -62 -66 -62 -9 0 -14 11
-14 28 0 21 7 30 31 41 37 16 69 75 51 93 -9 9 -12 8 -12 -5z"/>
<path d="M4470 2091 c0 -24 44 -78 70 -86 14 -4 20 -15 20 -36 0 -36 -10 -36
-48 -4 -37 31 -42 31 -42 1 0 -32 38 -86 78 -109 l32 -19 0 91 c0 72 -3 91
-14 91 -23 0 -76 50 -76 71 0 10 -4 19 -10 19 -5 0 -10 -9 -10 -19z"/>
<path d="M1360 2053 c0 -42 7 -40 20 6 7 24 6 31 -6 31 -10 0 -14 -12 -14 -37z"/>
<path d="M2720 2037 c-45 -16 -94 -81 -116 -154 -15 -53 -34 -295 -21 -283 2
3 14 40 26 83 12 43 30 96 41 116 26 52 76 93 109 89 24 -3 27 -8 37 -73 12
-81 22 -103 65 -139 30 -25 35 -26 165 -26 99 0 143 4 163 15 l29 14 4 -35 c7
-56 -11 -61 -190 -55 l-154 6 -34 38 c-19 20 -36 37 -39 37 -7 0 7 -63 21 -95
26 -56 56 -65 209 -65 130 0 170 7 186 33 12 18 -3 -87 -16 -112 -15 -29 0
-101 21 -101 11 0 14 38 14 208 l0 207 -23 -27 c-35 -42 -59 -48 -177 -48
-193 0 -207 14 -217 219 -3 78 -9 143 -12 145 -21 12 -61 13 -91 3z m78 -49
c3 -26 1 -28 -36 -28 -65 0 -101 -39 -143 -154 l-18 -51 6 45 c9 71 43 152 79
188 28 28 39 33 71 30 33 -3 38 -7 41 -30z"/>
<path d="M5000 2003 c1 -24 2 -25 11 -10 8 13 23 17 69 17 l60 0 0 -45 c0 -41
-2 -45 -24 -45 -13 0 -32 -3 -41 -6 -14 -6 -10 -10 15 -20 18 -8 44 -14 57
-14 21 0 24 4 19 23 -3 12 -6 46 -6 75 l0 52 -80 0 -80 0 0 -27z"/>
<path d="M3661 1683 l-1 -343 25 0 c29 0 29 0 10 65 -12 39 -15 105 -14 310 0
154 -4 270 -10 285 -7 18 -10 -77 -10 -317z"/>
<path d="M5470 1835 c-15 -9 -54 -14 -100 -15 l-75 0 0 -146 0 -146 -33 -29
c-32 -28 -34 -29 -147 -29 l-115 0 0 -69 c0 -51 4 -70 14 -74 8 -3 16 -1 19 6
2 8 12 6 32 -7 20 -13 48 -19 101 -20 64 -1 75 2 99 24 34 31 55 78 55 122 l0
33 -20 -32 c-31 -51 -65 -63 -180 -63 l-100 0 0 30 0 30 103 0 c148 0 186 27
197 140 l5 55 70 8 c46 5 74 13 82 23 10 13 13 7 16 -37 2 -30 4 6 5 79 1 72
1 132 0 132 -2 -1 -14 -7 -28 -15z m10 -48 c0 -37 -19 -47 -92 -47 l-68 0 0
30 0 29 73 4 c39 1 75 4 80 5 4 1 7 -8 7 -21z"/>
<path d="M2150 1809 c0 -14 -7 -34 -15 -46 -13 -18 -13 -30 -2 -85 l13 -63 6
105 c4 58 4 107 2 109 -2 2 -4 -7 -4 -20z"/>
<path d="M1201 1375 c-76 -98 -190 -157 -327 -171 -38 -4 -71 -10 -74 -15 -3
-4 -4 -27 -2 -51 3 -36 10 -47 38 -65 21 -14 34 -18 34 -10 0 7 6 4 14 -5 7
-10 21 -18 30 -18 39 0 143 44 174 73 24 23 42 31 69 32 l36 0 29 135 c15 74
27 138 26 142 -2 5 -23 -17 -47 -47z m5 -65 c-6 -40 -44 -93 -80 -112 -14 -7
-17 -7 -11 2 4 7 -5 4 -21 -6 -38 -24 -43 -29 -19 -20 11 4 16 3 11 -1 -4 -4
-17 -9 -29 -10 -12 -1 -53 -11 -92 -22 -38 -11 -87 -20 -107 -20 -36 -1 -38 1
-38 29 0 27 3 30 30 30 94 0 248 62 315 128 22 22 42 40 44 41 2 0 1 -17 -3
-39z"/>
<path d="M1673 1213 c-29 -2 -53 -7 -53 -10 0 -3 14 -18 30 -33 17 -15 30 -37
30 -48 0 -12 5 -24 10 -27 6 -3 10 -1 10 5 0 6 4 9 9 5 13 -8 41 23 41 45 0
10 14 30 31 44 l31 26 -44 -2 c-24 -1 -67 -3 -95 -5z m67 -25 c-1 -7 -6 -23
-13 -36 l-13 -23 -27 30 -26 30 32 4 c18 2 35 5 40 5 4 1 7 -4 7 -10z"/>
<path d="M5100 1069 c0 -127 -7 -147 -62 -175 -28 -15 -52 -15 -252 -3 -268
16 -1208 17 -1411 2 -157 -12 -196 -5 -217 41 -6 15 -15 26 -19 26 -4 0 -34
-16 -66 -35 -79 -48 -190 -82 -298 -90 -153 -12 -258 19 -367 109 l-58 47 0
-51 c0 -60 -20 -114 -49 -129 -21 -12 -410 -71 -463 -71 -19 0 -40 10 -59 29
-18 18 -31 25 -36 19 -3 -6 8 -24 26 -40 40 -36 54 -36 314 1 215 31 246 41
272 90 l14 26 1 -32 c0 -24 9 -38 38 -61 159 -125 408 -137 635 -30 l87 41 23
-22 c37 -34 68 -37 287 -30 330 11 1012 10 1311 -2 245 -10 279 -10 306 4 37
20 63 72 62 124 0 21 -3 31 -6 23 -10 -28 -56 -69 -84 -75 -16 -4 -131 -1
-256 5 -264 13 -1143 15 -1378 2 -175 -9 -214 -4 -244 34 l-19 25 -79 -40
c-111 -57 -186 -75 -323 -75 -133 -1 -208 20 -301 84 -45 30 -55 43 -57 70 -4
33 -3 33 20 17 103 -75 173 -104 278 -113 129 -12 310 28 409 90 22 14 43 26
47 26 3 0 15 -11 26 -25 29 -37 68 -43 243 -33 219 12 1150 11 1365 -2 287
-16 277 -17 324 33 l41 42 -2 109 c-4 152 -23 165 -23 15z"/>
<path d="M7335 1120 c-4 -7 0 -19 9 -28 13 -14 16 -14 16 -2 0 25 -16 44 -25
30z"/>
<path d="M1063 969 c-9 -9 -13 -52 -13 -141 0 -135 1 -137 54 -189 38 -37 73
-38 231 -9 83 16 184 34 225 40 62 11 80 18 107 45 33 33 41 59 23 70 -5 3
-10 -2 -10 -13 0 -10 -12 -30 -27 -44 -24 -22 -53 -30 -218 -59 -236 -41 -272
-44 -299 -29 -44 23 -51 48 -56 198 -4 115 -7 141 -17 131z"/>
<path d="M5391 913 c-1 -13 12 -37 27 -54 27 -30 32 -32 182 -50 127 -15 507
-63 660 -83 114 -14 562 -92 779 -136 140 -27 262 -48 271 -45 9 3 30 -1 46
-9 49 -23 520 -119 550 -112 43 11 84 59 84 98 l-1 33 -15 -35 c-20 -47 -41
-68 -74 -75 -30 -7 -524 98 -545 115 -7 5 -30 9 -51 9 -21 -1 -156 21 -299 49
-143 28 -332 63 -420 77 -88 14 -198 32 -245 40 -47 8 -220 31 -385 50 -488
58 -497 60 -520 88 -11 13 -25 33 -32 43 -11 18 -12 18 -12 -3z"/>
<path d="M5386 823 c-22 -22 19 -113 59 -131 14 -7 65 -16 113 -22 132 -15
309 -36 487 -59 88 -11 178 -22 200 -25 82 -10 538 -88 785 -136 140 -26 269
-50 285 -53 17 -3 144 -30 284 -61 139 -31 267 -56 283 -56 64 0 118 64 118
138 l0 27 -26 -32 c-47 -61 -69 -61 -344 -3 -135 29 -260 59 -277 67 -18 8
-40 13 -48 9 -12 -4 -158 22 -550 100 -51 10 -464 77 -500 81 -22 2 -123 15
-225 28 -102 13 -268 34 -369 45 -205 24 -220 28 -248 64 -11 14 -23 22 -27
19z"/>
<path d="M2347 766 c-14 -35 -60 -49 -264 -77 -277 -39 -277 -39 -325 11 l-38
41 0 -33 c0 -39 29 -90 65 -114 22 -14 41 -16 121 -10 130 9 346 43 389 60 39
17 75 68 75 109 0 29 -14 37 -23 13z"/>
<path d="M267 632 c-7 -93 -6 -116 7 -133 21 -31 67 -59 96 -59 44 0 444 89
477 106 18 10 42 32 53 51 24 41 27 110 5 110 -11 0 -15 -12 -15 -41 0 -23 -9
-55 -19 -72 -21 -35 -22 -35 -328 -100 -165 -34 -173 -35 -206 -19 -48 23 -57
46 -59 165 l-3 105 -8 -113z"/>
<path d="M1702 707 c-3 -30 -65 -85 -103 -91 -461 -82 -455 -81 -506 -30 -20
20 -25 21 -30 9 -9 -24 19 -86 50 -109 18 -13 43 -21 70 -21 66 0 418 64 457
84 46 23 72 76 67 133 -2 24 -4 35 -5 25z"/>
<path d="M880 515 c-14 -15 -33 -31 -42 -36 -21 -11 -434 -99 -467 -99 -32 0
-88 36 -96 62 -5 13 -10 17 -17 10 -15 -15 10 -92 42 -124 22 -22 38 -28 71
-28 59 0 426 78 468 99 40 20 74 78 69 116 l-3 27 -25 -27z"/>
</g>
</svg>
